<?xml version="1.0" standalone="no"?>
<!DOCTYPE svg PUBLIC "-//W3C//DTD SVG 20010904//EN"
 "http://www.w3.org/TR/2001/REC-SVG-20010904/DTD/svg10.dtd">
<svg version="1.0" xmlns="http://www.w3.org/2000/svg"
 width="500.000000pt" height="500.000000pt" viewBox="0 0 500.000000 500.000000"
 preserveAspectRatio="xMidYMid meet">
<metadata>
Created by potrace 1.14, written by Peter Selinger 2001-2017
</metadata>
<g transform="translate(0.000000,500.000000) scale(0.100000,-0.100000)"
fill="#000000" stroke="none">
<path d="M1795 3017 c-46 -46 -84 -142 -90 -227 -2 -25 -8 -56 -14 -70 -16
-37 -41 -185 -41 -242 0 -43 -12 -137 -36 -286 -4 -24 -15 -39 -45 -58 -51
-32 -80 -79 -77 -124 4 -46 37 -64 82 -46 17 7 31 17 31 22 2 47 122 131 256
178 150 53 204 85 181 108 -19 19 -202 -19 -326 -68 -17 -6 -18 -4 -13 22 4
16 27 138 52 271 25 134 55 273 66 310 39 124 90 203 124 190 29 -12 14 -108
-39 -232 -27 -65 -26 -75 7 -75 44 0 87 38 117 103 70 146 7 266 -139 267 -50
0 -57 -3 -96 -43z m-53 -167 c-27 -82 -42 -103 -22 -32 11 44 38 112 44 112 2
0 -8 -36 -22 -80z"/>
<path d="M3382 2833 c-18 -7 -67 -83 -81 -125 -7 -21 -18 -38 -24 -38 -23 0
-88 -62 -115 -110 -15 -26 -76 -94 -136 -151 -121 -115 -123 -115 -65 29 43
108 37 132 -32 132 -43 0 -42 2 -136 -176 -63 -121 -123 -204 -146 -204 -6 0
-8 23 -4 61 7 84 97 270 161 334 41 40 50 45 91 45 41 0 45 2 45 24 0 27 -42
66 -70 66 -31 0 -104 -30 -128 -53 -13 -12 -53 -61 -88 -108 -47 -63 -72 -88
-92 -92 -15 -3 -34 -8 -43 -12 -15 -6 -16 4 -12 97 l5 103 -36 37 c-40 41 -93
57 -132 39 -27 -12 -84 -95 -84 -123 0 -10 -17 -29 -37 -42 -74 -47 -122 -121
-153 -235 -33 -125 111 -247 215 -182 58 35 122 110 170 199 24 45 37 58 64
64 18 5 35 7 38 5 2 -3 -1 -25 -8 -51 -7 -27 -9 -68 -4 -101 5 -46 13 -63 44
-95 21 -22 46 -40 56 -40 29 0 95 78 153 181 35 61 52 83 48 64 -3 -16 -10
-59 -16 -95 -13 -73 -32 -109 -85 -160 -90 -86 -215 -291 -215 -352 0 -74 65
-148 129 -148 55 0 84 29 121 117 44 105 57 152 95 337 l33 159 101 101 101
101 0 -46 c0 -80 74 -159 150 -159 40 0 117 43 144 82 10 12 34 46 55 74 21
28 43 65 50 83 12 26 23 34 81 51 37 11 73 27 80 35 23 28 0 33 -61 14 -34
-11 -64 -18 -66 -16 -2 3 2 37 8 76 9 55 9 81 0 112 -20 67 -109 116 -169 92z
m94 -70 c8 -29 -2 -141 -17 -195 -9 -35 -12 -38 -47 -38 -49 0 -62 14 -62 68
0 125 103 259 126 165z m-1041 -178 c-3 -38 -11 -89 -17 -112 -10 -42 -11 -43
-54 -43 -38 0 -46 4 -56 26 -19 41 17 167 60 213 l34 36 20 -25 c18 -22 19
-34 13 -95z m922 -74 c12 -6 33 -11 47 -11 32 0 32 -9 5 -63 -33 -65 -77 -116
-120 -137 -89 -46 -99 26 -29 213 l22 59 27 -25 c14 -13 36 -30 48 -36z
m-1042 -101 c15 -6 38 -10 51 -10 22 0 24 -3 19 -22 -21 -68 -88 -153 -141
-179 -37 -18 -47 -19 -60 -8 -21 17 -13 88 20 187 33 97 34 97 62 67 13 -14
35 -30 49 -35z m358 5 c-3 -9 -8 -14 -10 -11 -3 3 -2 9 2 15 9 16 15 13 8 -4z
m87 -444 c-39 -155 -63 -218 -98 -260 -33 -40 -56 -37 -73 6 -15 39 1 96 52
182 49 80 139 204 146 198 2 -3 -10 -59 -27 -126z m0 -98 c-11 -17 -11 -17 -6
0 3 10 6 24 7 30 0 9 2 9 5 0 3 -7 0 -20 -6 -30z"/>
</g>
</svg>
